<svg xmlns="http://www.w3.org/2000/svg" xmlns:xlink="http://www.w3.org/1999/xlink" xmlns:svgjs="http://svgjs.com/svgjs" width="512" height="512" x="0" y="0" viewBox="0 0 128 128" style="enable-background:new 0 0 512 512" xml:space="preserve" class=""><g><path d="M118 28.47h-9.794a7.747 7.747 0 0 0-6.156-3.04h-6.3v-6.976a1.75 1.75 0 1 0-3.5 0v6.976H45.572v-6.976a1.75 1.75 0 0 0-3.5 0v6.976H32.09a7.758 7.758 0 0 0-7.75 7.75v24.64a11.673 11.673 0 0 0 7.78 11.051v6.179a1.75 1.75 0 0 0 1.75 1.75h5.065v3.972a1.75 1.75 0 0 0 3.5 0V76.8H47.5a1.75 1.75 0 0 0 1.75-1.75v-7.222a7.789 7.789 0 0 0 2.87-6.008v-5.73a4.255 4.255 0 0 1 4.25-4.25h19.36a4.255 4.255 0 0 1 4.25 4.25V87.8H18a9.761 9.761 0 0 0-9.75 9.75v12A1.75 1.75 0 0 0 10 111.3h105.367a1.75 1.75 0 0 0 1.75-1.75v-20a1.762 1.762 0 0 0-.03-.325c-.037-.2-3.606-19.178-5.774-38.195H118a1.75 1.75 0 0 0 1.75-1.75V30.22a1.75 1.75 0 0 0-1.75-1.75zM40.734 73.3H35.62v-3.756c.157.006.314.026.47.026h8.28a7.732 7.732 0 0 0 1.38-.138V73.3zm35-24.96H56.37a7.759 7.759 0 0 0-7.75 7.75v5.73a4.216 4.216 0 0 1-2.049 3.626 4.136 4.136 0 0 1-2.2.624H36.09a8.255 8.255 0 0 1-8.25-8.25V33.18a4.255 4.255 0 0 1 4.25-4.25H102.05a4.239 4.239 0 0 1 3.7 2.162 4.082 4.082 0 0 1 .548 1.884c.2 4.717.647 10.266 1.319 16.494 1.753 16.108 4.623 32.634 5.65 38.326H83.48V56.09a7.759 7.759 0 0 0-7.75-7.75zm-63.98 59.46V97.546A6.257 6.257 0 0 1 18 91.3h95.617v6.5H37.185a1.75 1.75 0 1 0 0 3.5h76.432v6.5zM116.25 47.53h-5.314c-.571-5.515-.955-10.461-1.138-14.7a7.49 7.49 0 0 0-.088-.858h6.54z" fill="#b6a65e" data-original="#000000" class=""></path><path d="M94 48.478a7.114 7.114 0 1 0-7.114-7.115A7.122 7.122 0 0 0 94 48.478zm0-10.728a3.614 3.614 0 1 1-3.614 3.613A3.617 3.617 0 0 1 94 37.75zM96.686 60.155a1.75 1.75 0 1 0-1.919-1.562 1.75 1.75 0 0 0 1.919 1.562zM97.682 69.877a1.75 1.75 0 1 0-1.919-1.562 1.75 1.75 0 0 0 1.919 1.562zM98.322 76.117a1.75 1.75 0 1 0 1.919 1.563 1.751 1.751 0 0 0-1.919-1.563z" fill="#b6a65e" data-original="#000000" class=""></path></g></svg>